<?xml version="1.0" encoding="iso-8859-1"?>
<!-- Uploaded to: SVG Repo, www.svgrepo.com, Generator: SVG Repo Mixer Tools -->
<svg version="1.1" id="Layer_1" xmlns="http://www.w3.org/2000/svg" xmlns:xlink="http://www.w3.org/1999/xlink" 
	 viewBox="0 0 488.8 488.8" xml:space="preserve">
<path style="fill:#C8E1E8;" d="M488,267.2c0,12.8-2.4,23.2-15.2,23.2H15.2C2.4,290.4,0,280,0,267.2V156.8
	c0-12.8,10.4-23.2,23.2-23.2h442.4c12.8,0,23.2,10.4,23.2,23.2v110.4H488z"/>
<path style="fill:#86A8B2;" d="M488,280.8c0,12.8-2.4,23.2-15.2,23.2H15.2C2.4,304,0,293.6,0,280.8V171.2C0,158.4,10.4,148,23.2,148
	h442.4c12.8,0,23.2,10.4,23.2,23.2v109.6H488z"/>
<polygon style="fill:#6B9199;" points="312,192.8 213.6,291.2 226.4,304 422.4,304 "/>
<path style="fill:#A2C0CC;" d="M488,273.6c0,12.8-2.4,23.2-15.2,23.2H15.2C2.4,296.8,0,286.4,0,273.6V163.2
	C0,150.4,10.4,140,23.2,140h442.4c12.8,0,23.2,10.4,23.2,23.2v110.4H488z"/>
<path style="fill:#95B6C1;" d="M0,163.2C0,150.4,10.4,140,23.2,140h442.4c12.8,0,23.2,10.4,23.2,23.2v110.4
	c0,12.8-2.4,23.2-15.2,23.2"/>
<polygon style="fill:#86A8B2;" points="312,227.2 213.6,291.2 218.4,296 415.2,296 356,236.8 "/>
<path style="fill:#C8E1E8;" d="M430.4,244c0,5.6-4.8,9.6-9.6,9.6H68c-5.6,0-9.6-4.8-9.6-9.6v-13.6c0-5.6,4.8-9.6,9.6-9.6h352
	c5.6,0,9.6,4.8,9.6,9.6V244H430.4z"/>
<path style="fill:#486066;" d="M430.4,240c0,5.6-4.8,9.6-9.6,9.6H68c-5.6,0-9.6-4.8-9.6-9.6v-13.6c0-5.6,4.8-9.6,9.6-9.6h352
	c5.6,0,9.6,4.8,9.6,9.6V240H430.4z"/>
<path style="fill:#394D51;" d="M68,216.8c-5.6,0-9.6,4-9.6,9.6s4.8,9.6,9.6,9.6h352c5.6,0,9.6-4,9.6-9.6s-4.8-9.6-9.6-9.6H68z"/>
<g>
	<rect x="167.2" y="216.8" style="opacity:0.3;fill:#95C19D;enable-background:new    ;" width="192" height="138.4"/>
	<rect x="149.6" y="216.8" style="fill:#95C19D;" width="188" height="108.8"/>
</g>
<polyline style="fill:#83B28C;" points="149.6,216.8 338.4,216.8 338.4,326.4 "/>
<rect x="149.6" y="216.8" style="fill:#719E78;" width="188" height="25.6"/>
<rect x="171.2" y="216.8" style="fill:#578461;" width="145.6" height="89.6"/>
<polyline style="fill:#43754F;" points="171.2,216.8 316.8,216.8 316.8,306.4 "/>
<rect x="171.2" y="216.8" style="fill:#35633F;" width="145.6" height="25.6"/>
<path style="opacity:0.3;fill:#95C19D;enable-background:new    ;" d="M264,172c-0.8-1.6-1.6-1.6-3.2-1.6H228
	c-1.6,0-2.4,0.8-3.2,1.6c-0.8,0.8-0.8,2.4,0,4l16,27.2c0.8,0.8,1.6,1.6,3.2,1.6c1.6,0,2.4-0.8,3.2-1.6l16-27.2
	C264,174.4,264,172.8,264,172z"/>
<path style="fill:#EDD211;" d="M264,164c-0.8-1.6-1.6-1.6-3.2-1.6H228c-1.6,0-2.4,0.8-3.2,1.6c-0.8,0.8-0.8,2.4,0,4l16,27.2
	c0.8,0.8,1.6,1.6,3.2,1.6c1.6,0,2.4-0.8,3.2-1.6l16-27.2C264,166.4,264,164.8,264,164z"/>
<path style="fill:#83B28C;" d="M204,269.6c-6.4,2.4-8.8,2.4-10.4,0.8c-1.6-1.6-2.4-4,0.8-7.2s6.4-4,7.2-4s0.8-0.8,0.8-0.8
	c0-0.8,0-0.8,0-1.6L200,252c0-0.8-0.8-0.8-1.6-0.8c-3.2,0.8-5.6,2.4-8,4l-4-4c-0.8-0.8-1.6-0.8-2.4,0l-3.2,3.2
	c-0.8,0.8-0.8,1.6,0,2.4l4,4c-4,5.6-3.2,12.8,1.6,16.8c5.6,5.6,12.8,4,19.2,0.8c4.8-2.4,8-2.4,10.4,0s1.6,5.6-0.8,8.8
	c-2.4,2.4-5.6,4-8.8,4.8c-0.8,0-0.8,0.8-0.8,0.8c0,0.8,0,0.8,0,1.6l2.4,4.8c0,0.8,0.8,0.8,1.6,0.8c3.2-0.8,7.2-2.4,9.6-4.8l4,4
	c0.8,0.8,1.6,0.8,2.4,0l3.2-3.2c0.8-0.8,0.8-1.6,0-2.4l-4.8-4.8c4-6.4,3.2-13.6-1.6-17.6C218.4,266.4,212,265.6,204,269.6z"/>
<path style="fill:#EAC113;" d="M260,162.4h-32c-1.6,0-2.4,0.8-3.2,1.6c0,0,0,0,0,0.8l25.6,25.6L264,168c0.8-0.8,0.8-2.4,0-4
	S261.6,162.4,260,162.4z"/>
</svg>